<svg id="Component_1_1" data-name="Component 1 – 1" xmlns="http://www.w3.org/2000/svg" width="219" height="192" viewBox="0 0 219 192">
    <rect id="Rectangle_1907" data-name="Rectangle 1907" width="219" height="192" rx="40" fill="#292862"/>
    <path id="Rectangle_1908" data-name="Rectangle 1908" d="M0,0H219a0,0,0,0,1,0,0V26a40,40,0,0,1-40,40H40A40,40,0,0,1,0,26V0A0,0,0,0,1,0,0Z" transform="translate(0 126)" fill="#edf0ff"/>
    <rect id="Rectangle_1912" data-name="Rectangle 1912" width="72" height="13" rx="6.5" transform="translate(23 62)" fill="rgba(150,150,184,0.82)"/>
    <rect id="Rectangle_1913" data-name="Rectangle 1913" width="91" height="13" rx="6.5" transform="translate(23 83)" fill="rgba(150,150,184,0.82)"/>
    <rect id="Rectangle_1914" data-name="Rectangle 1914" width="26" height="8" transform="translate(106 21)" fill="rgba(116,117,171,0.92)"/>
    <rect id="Rectangle_1915" data-name="Rectangle 1915" width="26" height="8" transform="translate(137 21)" fill="rgba(116,117,171,0.92)"/>
    <rect id="Rectangle_1916" data-name="Rectangle 1916" width="26" height="8" transform="translate(168 21)" fill="rgba(116,117,171,0.92)"/>
    <circle id="Ellipse_400" data-name="Ellipse 400" cx="10.5" cy="10.5" r="10.5" transform="translate(21 15)" fill="rgba(174,170,203,0.81)"/>
</svg>
